<?xml version="1.0"?>
<svg xmlns:rdf="http://www.w3.org/1999/02/22-rdf-syntax-ns#" xmlns="http://www.w3.org/2000/svg" xmlns:cc="http://web.resource.org/cc/" xmlns:xlink="http://www.w3.org/1999/xlink" xmlns:dc="http://purl.org/dc/elements/1.1/" xmlns:svg="http://www.w3.org/2000/svg" id="svg2" viewBox="0 0 278.47 923" version="1.0">
  <defs id="defs4">
    <radialGradient id="radialGradient4838" gradientUnits="userSpaceOnUse" cy="458.69" cx="418.04" gradientTransform="matrix(-.74890 1.9744 -1.5524 -.58886 1443.2 -157.93)" r="139.24">
      <stop id="stop4834" stop-color="#b77032" offset="0"/>
      <stop id="stop4836" stop-color="#b77032" stop-opacity="0" offset="1"/>
    </radialGradient>
    <radialGradient id="radialGradient4850" gradientUnits="userSpaceOnUse" cy="340.25" cx="360.81" gradientTransform="matrix(2.2178 -7.1512 8.3067 2.5761 -3264.8 2129.1)" r="20.944">
      <stop id="stop4846" stop-color="#1c1a1a" offset="0"/>
      <stop id="stop4848" stop-color="#b3b3b3" stop-opacity="0" offset="1"/>
    </radialGradient>
    <radialGradient id="radialGradient4858" gradientUnits="userSpaceOnUse" cy="73.423" cx="363.3" gradientTransform="matrix(1.8885 1.4164 -1.2173 1.623 -233.42 -562.68)" r="8.5184">
      <stop id="stop4854" stop-color="#7d2d0e" offset="0"/>
      <stop id="stop4856" stop-color="#7d2d0e" stop-opacity="0" offset="1"/>
    </radialGradient>
    <radialGradient id="radialGradient4866" gradientUnits="userSpaceOnUse" cy="121.29" cx="363.3" gradientTransform="matrix(1.8651 2.4532 -2.5854 1.9656 -.72207 -1013)" r="9.0229">
      <stop id="stop4862" stop-color="#343534" offset="0"/>
      <stop id="stop4864" stop-color="#803300" stop-opacity="0" offset="1"/>
    </radialGradient>
  </defs>
  <g id="layer4" stroke="#000" transform="translate(-227.55 -58.142)">
    <path id="path4840" stroke-width="1px" fill-rule="evenodd" fill="#7d2d0e" d="m353.48 320.92c-35.29 3.27-66.77 12.91-88.04 50.42-15.34 27.03-12.28 59.58-6.04 77.09 5.74 16.08 4.24 31.45-3.55 38.91 2.25 5.04 0.42 0.75 2.44 5.84 31.57-8.35 30.94 23.78 30.76 36.59-0.53 39.18-18.72 56.63-44.43 54.96l-3.31 5.13c17.83 14.54-8.29 50.6-12.07 76.41-5.32 36.34 7.56 68.82 30.16 89.15 27.65 24.88 66.33 27.28 109.26 26.81 48.81-0.52 72.86-5.79 95.18-21.45 35.49-24.88 46.92-68.79 39.55-96.52-12.12-45.61-25.88-65.69-11.39-79.09l-2.69-5.37c-38.71 12.28-45.2-33.43-45.58-52.95-0.35-18.56 4.73-38.04 30.17-37.54l2.68-5.36c-11.33-10.34-5.55-22.82-3.35-34.85 5.73-24.86 11.63-54.41-9.39-85.13-14.76-21.58-40.22-39.7-81.1-42.9l-29.26-0.15z"/>
    <path id="path2844" stroke-width="1px" fill-rule="evenodd" fill="url(#radialGradient4838)" d="m353.48 320.92c-35.29 3.27-66.77 12.91-88.04 50.42-15.34 27.03-12.28 59.58-6.04 77.09 5.74 16.08 4.24 31.45-3.55 38.91 2.25 5.04 0.42 0.75 2.44 5.84 31.57-8.35 30.94 23.78 30.76 36.59-0.53 39.18-18.72 56.63-44.43 54.96l-3.31 5.13c17.83 14.54-8.29 50.6-12.07 76.41-5.32 36.34 7.56 68.82 30.16 89.15 27.65 24.88 66.33 27.28 109.26 26.81 48.81-0.52 72.86-5.79 95.18-21.45 35.49-24.88 46.92-68.79 39.55-96.52-12.12-45.61-25.88-65.69-11.39-79.09l-2.69-5.37c-38.71 12.28-45.2-33.43-45.58-52.95-0.35-18.56 4.73-38.04 30.17-37.54l2.68-5.36c-11.33-10.34-5.55-22.82-3.35-34.85 5.73-24.86 11.63-54.41-9.39-85.13-14.76-21.58-40.22-39.7-81.1-42.9l-29.26-0.15z"/>
    <path id="path2846" stroke-width=".9696px" fill="none" d="m354.08 324.87c-33.71 3.22-63.78 12.71-84.11 49.63-14.64 26.61-11.72 58.63-5.76 75.87 5.48 15.82 4.04 30.28-3.39 37.62 24.33-4.48 32.1 9.37 31.71 41.76-0.29 24.28-4.33 56-45.61 59.81 17.04 14.32-7.91 49.81-11.52 75.21-5.08 35.76 7.22 67.73 28.81 87.74 26.41 24.48 63.36 26.84 104.37 26.39 46.62-0.52 69.59-5.7 90.92-21.11 33.89-24.5 44.81-67.71 37.77-95-11.57-44.89-22.04-63.64-10.88-77.84-21.4 10.96-47.44-17.33-46.1-57.4 1.37-40.77 17.46-39.74 31.37-42.22-10.82-10.18-5.29-22.46-3.2-34.3 5.48-24.47 11.11-53.55-8.96-83.78-14.1-21.24-38.43-39.08-77.48-42.23l-27.94-0.15z"/>
    <path id="path2850" stroke-width="1px" fill-rule="evenodd" fill="#b0682e" d="m355.26 161.88c-4.76-1-4.66-4.42-4.47-7.89l4.92-61.179c-3.1-2.272-3.05-5.171-3.08-8.058-7.59-1.824-5.95-6.77-5.09-11.612 3.66-0.37 2.85-0.308 6-0.428-0.47-2.016 1.07-7.292 4.43-7.748-1.27-7.054 2.93-6.021 7.22-6.28 8.2-0.494 5.18 3.36 5.81 6.872 2.83 0.877 4.47 3.669 4.15 7.702l6.16 0.593c0.96 10.761-3.95 10.507-7.11 10.783-0.37 3.449 0.45 7.731-4.03 8.886 0.76 4.241 1.92 8.879 3.32 13.749 6.67 18.17 6.51 38.23 4.5 54.5l-22.73 0.11z"/>
    <path id="path2852" stroke-width="1px" fill-rule="evenodd" fill="url(#radialGradient4858)" d="m357.97 65.557l-2.02 21.684c-0.24 3.404 0.55 5.776 4.39 5.096l6.51 0.118c5.85 0.536 4.13-2.932 5.1-4.977l-1.54-22.276c0.55-3.914 0.19-7.123-5.81-6.043-3.14 0.116-7.1-1.529-6.63 6.398z"/>
    <path id="path4868" stroke-width="1px" fill-rule="evenodd" fill="#964a1d" d="m359.03 109.75l-1.54 30.58c-0.2 3.29 1.02 3.72 2.37 3.91l11.97-0.12c3.41-0.22 2.68-2.09 2.49-5.1l-4.03-29.38c-0.46-1.37-0.34-3.03-3.2-3.2h-5.69c-1.66 0.4-2.28 1.65-2.37 3.31z"/>
    <path id="path2854" stroke-width="1px" fill-rule="evenodd" fill="url(#radialGradient4866)" d="m359.03 109.75l-1.54 30.58c-0.2 3.29 1.02 3.72 2.37 3.91l11.97-0.12c3.41-0.22 2.68-2.09 2.49-5.1l-4.03-29.38c-0.46-1.37-0.34-3.03-3.2-3.2h-5.69c-1.66 0.4-2.28 1.65-2.37 3.31z"/>
    <path id="path2856" stroke-width="1px" fill-rule="evenodd" fill="#1c1a1a" d="m354.06 113.55l-15.41-0.12c-0.67-2.62-5.39-3.13-8.89-3.2-4.77-0.1-9.08 2.88-7.58 7.11 1.65 4.66 9.4 3.94 16.35 2.01l15.05-0.12 0.48-5.68z"/>
    <path id="path2858" stroke-width="1px" fill-rule="evenodd" fill="#1c1a1a" d="m352.04 139.85l-15.4-0.12c-0.67-2.61-5.52-2.17-9.01-2.25-4.77-0.1-10.38 2.75-7.46 6.16 3.07 3.6 9.39 3.95 16.35 2.02l15.05-0.12 0.47-5.69z"/>
    <path id="path2860" stroke-width="1px" fill-rule="evenodd" fill="#1c1a1a" d="m375.5 113.07l9.96 0.12c0.36 4.37 3.21 8.26 8.41 7.7 3.52-0.38 8.03-4.76 8.29-10.9 0.24-5.5-4.97-10.2-9.83-10.188-3.8 0.009-6.7 2.828-6.99 7.588l-11.97-0.48 2.13 6.16z"/>
    <path id="path2862" stroke-width="1px" fill-rule="evenodd" fill="#1c1a1a" d="m379.18 135.23l11.02 0.12c0.36 4.37 3.21 8.26 8.41 7.7 3.52-0.38 8.03-4.76 8.29-10.9 0.24-5.5-4.97-10.2-9.83-10.19-3.8 0.01-6.7 2.83-6.99 7.58h-11.26l0.36 5.69z"/>
    <path id="path2864" stroke-width="1px" fill-rule="evenodd" fill="#8a8051" d="m359.28 782.23c-1.56 1.56-0.22 9.95 7.37 9.72 7.27-0.21 8.68-8.25 7.04-9.38l-14.41-0.34z"/>
    <path id="path2866" stroke-width="1px" fill-rule="evenodd" fill="#89938b" d="m363.63 791.62l0.67 94.84 2.02 94.18h5.69l-1-119.31-0.34-71.05c-1.83 1.47-4.31 1.65-7.04 1.34z"/>
    <path id="path2868" stroke-width="1px" fill-rule="evenodd" fill="#1c1a1a" d="m346.21 782.57s0.16 3.94 3.35 5.03c3.18 1.09 9.38-0.67 9.38-0.67l0.34-4.7-13.07 0.34z"/>
    <path id="path2872" stroke-width="1px" fill-rule="evenodd" fill="#947958" d="m359.28 567.74c-6.71-3.66-13.41-2.68-20.11-3.02v10.39c8.57-0.55 17.63-0.72 20.11-3.01h21.11c0.85 4.74 13.47 1.92 19.11 2.68l-0.67-9.39c-7.82-1.11-13.86-0.44-18.1 2.01l-21.45 0.34z"/>
    <path id="path2870" opacity=".98" d="m360.62 778.55h16.76c0.93-8.98 0.51-27.34-0.34-37.2-0.25-23.17-2.08-36.16 4.36-62.68 5.18-13.11 6.6-28.48 7.37-44.24-11.03 3.04-22.95 4.53-37.54 1.34 1.59 14.4 1.63 28.18 7.38 44.24 6.88 21.6 5.58 39.1 3.68 56.31-2.29 14.07-2 28.15-1.67 42.23z" fill-rule="evenodd" stroke-width="1px" fill="#1a1a1a"/>
    <path id="path2848" stroke-width="1px" fill-rule="evenodd" fill="#1c1a1a" d="m355.84 147.94l-7.37 362.63c14.66-5.15 28.01-3.75 40.89 0l-14.08-363.3-19.44 0.67z"/>
    <path id="path4842" stroke-width="1px" fill-rule="evenodd" fill="url(#radialGradient4850)" d="m355.97 147.07l-7.38 362.63c14.66-5.14 28.01-3.74 40.89 0l-14.08-363.3-19.43 0.67z"/>
    <path id="path3848" stroke-width="1px" fill="none" d="m360.22 655.18l-2.85-83.42v-5.69l2.85-420.89v-5.68 0.94"/>
    <path id="path3850" stroke-width="1px" fill="none" d="m367.8 655.18v-89.11l-5.69-422.78 0.95-15.17v-1.89"/>
    <path id="path3852" stroke-width="1px" fill="none" d="m375.86 654.7l2.37-82v-7.58l-8.53-419.94-1.9-14.21"/>
    <path id="path3854" stroke-width="1px" fill="none" d="m383.92 655.18l5.68-81.53v-9.48l-15.16-421.83"/>
    <path id="path3844" opacity=".98" stroke-width="1px" fill-rule="evenodd" d="m328.11 533.55c-11.33-5-13.47 17.42-12.74 40.56-0.59 33.6-10.29 35.97-18.43 35.86-4.48-0.07-12.1-3.79-9.72-11.73 0.75-2.5 5.03-5.24 8.04-2.01 1.32 1.41 2.19 4.47-2.01 6.7 8.45 9.38 14.26-3.07 15.76-9.05 2.67-13.56 1.53-28.2 2.34-42.56 0.59-10.38 4.37-20.62 14.41-21.45 3.55-0.3 7.29 1.73 9.05 6.37-0.62 3.42-1.74 6.02-5.03 5.02-3.17-1.73-3.86-4.18-1.67-7.71z"/>
    <path id="path3846" stroke-width="1px" fill-rule="evenodd" d="m409.1 534.56c11.33-5 13.47 17.42 12.73 40.55 0.6 33.61 10.3 35.98 18.44 35.86 4.48-0.06 12.1-3.78 9.72-11.73-0.75-2.49-5.03-5.23-8.05-2.01-1.32 1.41-2.18 4.47 2.01 6.71-8.44 9.38-14.25-3.07-15.75-9.05-2.68-13.56-1.53-28.21-2.34-42.57-0.59-10.37-4.37-20.62-14.42-21.45-3.54-0.29-7.28 1.74-9.04 6.37 0.62 3.43 1.74 6.03 5.02 5.03 3.18-1.74 3.86-4.19 1.68-7.71z"/>
  </g>
  <metadata>
    <rdf:RDF>
      <cc:Work>
        <dc:format>image/svg+xml</dc:format>
        <dc:type rdf:resource="http://purl.org/dc/dcmitype/StillImage"/>
        <cc:license rdf:resource="http://creativecommons.org/licenses/publicdomain/"/>
        <dc:publisher>
          <cc:Agent rdf:about="http://openclipart.org/">
            <dc:title>Openclipart</dc:title>
          </cc:Agent>
        </dc:publisher>
        <dc:title>cello 1</dc:title>
        <dc:date>2007-11-25T21:24:47</dc:date>
        <dc:description>Yet another string instrument.</dc:description>
        <dc:source>http://openclipart.org/detail/8995/cello-1-by-papapishu</dc:source>
        <dc:creator>
          <cc:Agent>
            <dc:title>papapishu</dc:title>
          </cc:Agent>
        </dc:creator>
        <dc:subject>
          <rdf:Bag>
            <rdf:li>cello</rdf:li>
            <rdf:li>clip art</rdf:li>
            <rdf:li>clipart</rdf:li>
            <rdf:li>image</rdf:li>
            <rdf:li>instrument</rdf:li>
            <rdf:li>media</rdf:li>
            <rdf:li>music</rdf:li>
            <rdf:li>musical instrument</rdf:li>
            <rdf:li>png</rdf:li>
            <rdf:li>public domain</rdf:li>
            <rdf:li>svg</rdf:li>
          </rdf:Bag>
        </dc:subject>
      </cc:Work>
      <cc:License rdf:about="http://creativecommons.org/licenses/publicdomain/">
        <cc:permits rdf:resource="http://creativecommons.org/ns#Reproduction"/>
        <cc:permits rdf:resource="http://creativecommons.org/ns#Distribution"/>
        <cc:permits rdf:resource="http://creativecommons.org/ns#DerivativeWorks"/>
      </cc:License>
    </rdf:RDF>
  </metadata>
</svg>
